<svg id="Leg1" data-name="Layer 1" xmlns="http://www.w3.org/2000/svg" viewBox="0 0 425.56 349.68">
  <title>Artboard 1</title>
  <g id="svg8">
    <g id="cuisse">
      <path d="M339.6,116.31c-1.6-4.6-1.6-10.6-.6-15.6,2-6,6-11,12-11,7.71-1.72,14.68.24,22.18.21L398.72,86a36.05,36.05,0,0,1,4.28-.29c8-1,15-4,22-8-5-26-8-51-12-77-38-2-74,11-110,21-13,8-19,22-20.3,36.9" style="fill: none;stroke: #000"/>
      <path d="M406.9,52.71c2.6-5.5-8.3-8.4-27.2-4.2-14,3.1-27.6,6-31.9,9.1l-15.5,7.9-14.4,10.4L314.8,79l3.1,4.4,7.4-8.5,8.6-4.2,7.8-.5h0l-4,9.7-10.6,7.4-8.5.7,2.1,4,18-3.6,45-5.7,25.6-8.9" style="fill: #ffdced;stroke: #fff;stroke-width: 0.26460000872612px"/>
      <polyline points="402.4 5.51 375.1 7.41 334.7 15.41 316.7 25.61 296 40.11 287.7 51.71 289.7 62.41 293.7 61.61 298.4 55.61 301.1 51.71 303 45.91 305.9 40.81 319.6 36.51 327.4 34.01 334.4 32.21 340.9 32.51 350.3 32.31 358.5 31.31 372 29.21 385.9 28.51 393.4 27.01 401 26.51 404.6 26.01 404.6 24.31" style="fill: #ffdced;stroke: #fff;stroke-width: 0.26460000872612px"/>
      <path id="path169" d="M405,29.11c-16.8.9-34.5,1.4-48.5,3.8l-16.9,2.5c-8.5,2.2-16.6,4-24.6,5.7l-4.2.9-3.4,4.4c-1.1,6.5-2.8,9.8-4.4,14,.2,2.7.9,5.1,3,6.8,4.4,3.1,7.7,3.8,11.2,4.9l7.4-1.5c3.2-5.9,4.8-12.6,11.7-16.7a102.8,102.8,0,0,1,17-4.4c17.6-4.2,35.2-4.4,52.8-5.9" style="fill: #f2f26d;stroke: #fff"/>
    </g>
    <g id="pied">
      <path id="path53" d="M286.4,141.61v-5.1" style="fill: none;stroke: #000;stroke-width: 0.26460000872612px"/>
      <path id="path53-2" d="M286.4,156.81l.1-20.3v-3.2" style="fill: none;stroke: #000"/>
      <path d="M321.8,86.91c.3-.2,1.3.8,1.3.8" style="fill: #f2f26d;stroke: #fff;stroke-width: 0.26460000872612px"/>
      <path d="M286.4,219.81c-.4-26.1-.4-52.1,0-78.2h0" style="fill: none;stroke: #000"/>
      <path id="path53-3" d="M286.4,231.21v-11.4" style="fill: none;stroke: #000"/>
      <path id="path53-4" d="M286.3,108.71c-.2-5.7-.4-11.9-.9-18.6l-2.7-31.6" style="fill: none;stroke: #000"/>
      <path d="M296.2,79l-3.6-8.6,3.6-1.9s6.6,9.8,3.6,11.4C296.2,81.81,296.2,79.31,296.2,79Z" style="fill: #ffdced;stroke: #fff;stroke-width: 0.26460000872612px"/>
      <path id="path53-5" d="M286.5,133.31c0-7.7,0-15.6-.2-24.5" style="fill: none;stroke: #000"/>
      <path d="M289.7,62.41s.8,7,2.9,8a1.6,1.6,0,0,0,1.5.1,4.3,4.3,0,0,0,2.1-2l-2.5-6.9" style="fill: #f2f26d;stroke: #fff;stroke-width: 0.26460000872612px"/>
      <path d="M292,152l2.64-41.47,1.72-27.12,3-3c2.64-3.5,7.52-5.41,7.52-5.41l8.56,3.55a45.81,45.81,0,0,0,5.06,15l4,22.49L323,139.93l-1.91,30-1.3,19.57-.94,8.65-8.22-.2L309,161.75l3.86-33.16h0l-5.37-27.74-2,13.57-2.3,36.27,2.14,21-.43,22.93,2.88,3.27-18.68-1.19,2.53-39.82.31-4.81" style="fill: #f2f26d;stroke: #fff;stroke-width: 0.26460000872612px"/>
      <path d="M286.5,202.68s.08,41.5-1.41,45.43-3.59,8.39-5.92,14.39a48.56,48.56,0,0,0-2.79,11.76s-.14,7.93-1.09,10.23-3.71,10.29-5.34,15.19-5.2,20.42-6.45,22.41-7.86,13.18-10.8,15.77-4.86,4.75-4.69,5.46l.9,3.72s4.24,2,5,1.81l1.77-.43s1.33.81,2,.64a8.15,8.15,0,0,0,2.09-1.45,14.55,14.55,0,0,0,1.84,1.39c.88.54,2.84-.69,2.84-.69l3.05-2c.7.11,1.41.19,2.12.23a5.78,5.78,0,0,0,3.2-.77l2.31-1.31,2.62-.82a5.5,5.5,0,0,0,2.48-.6c1-.62,6.13-1.86,8.13-2.91s2.62-.82,5.34-2.79,5.47-10,6.05-10.68,4-16.93,7.37-20,9.11-9.72,9.11-9.72,8.48-8.44,8.49-9.95-.7-7.53-.7-7.53-3.24-7.29-4.52-9.45-8.36-12-6.6-16.41,5-28.08,5-28.08l7.35-30.15s9.91-23.93,14.31-43.79,0-35.26,0-35.26" style="fill: none;stroke: #000"/>
    </g>
  </g>
</svg>
