<svg id="Leg2" data-name="Layer 1" xmlns="http://www.w3.org/2000/svg" viewBox="0 0 425.6 349.7">
  <title>Artboard 1</title>
  <g id="svg8_copy" data-name="svg8 copy">
    <g id="cuisse">
      <path d="M283.1,58.3c1.3-14.9,7.3-28.9,20.3-36.9,36-10,72-23,110-21,4,26,7,51,12,77-7,4-14,7-22,8a109,109,0,0,0-18,2h0c-3,1-5,2-8,2-9,1-17-2-26,0-6,0-10,5-12,11-1,5-1,11,.6,15.6" style="fill: none;stroke: #000"/>
      <path d="M407.3,52.4c2.6-5.5-8.3-8.4-27.2-4.2-14,3.1-27.6,6-31.9,9.1l-15.5,7.9L318.3,75.6l-3.1,3.1,3.1,4.4,7.4-8.5,8.6-4.2,7.8-.5h0l-4,9.7L327.5,87l-8.5.7,2.1,4,18-3.6,45-5.7,25.6-8.9" style="fill: #ffdced;stroke: #fff;stroke-width: 0.26460000872612px"/>
      <polyline points="402.8 5.2 375.5 7.1 335.1 15.1 317.1 25.3 296.4 39.8 288.1 51.4 290.1 62.1 294.1 61.3 298.8 55.3 301.5 51.4 303.4 45.6 306.3 40.5 320 36.2 327.8 33.7 334.8 31.9 341.3 32.2 350.7 32 358.9 31 372.4 28.9 386.3 28.2 393.8 26.7 401.4 26.2 405 25.7 405 24" style="fill: #ffdced;stroke: #fff;stroke-width: 0.26460000872612px"/>
      <path id="path169" d="M405.4,28.8c-16.8.9-34.5,1.4-48.5,3.8L340,35.1c-8.5,2.2-16.6,4-24.6,5.7l-4.2.9-3.4,4.4c-1.1,6.5-2.8,9.8-4.4,14,.2,2.7.9,5.1,3,6.8,4.4,3.1,7.7,3.8,11.2,4.9l7.4-1.5c3.2-5.9,4.8-12.6,11.7-16.7a108.78,108.78,0,0,1,17-4.4c17.6-4.2,35.2-4.4,52.8-5.9" style="fill: #f2f26d;stroke: #fff"/>
    </g>
    <g id="pied">
      <path id="path53" d="M285.5,141l.2-5.1" style="fill: none;stroke: #000;stroke-width: 0.26460000872612px"/>
      <path id="path53-2" d="M285,156.2l.9-20.3.1-3.2" style="fill: none;stroke: #000"/>
      <path d="M323,87.7c.3-.2,1.3.8,1.3.8" style="fill: #f2f26d;stroke: #fff;stroke-width: 0.26460000872612px"/>
      <path d="M282.6,219.1c.6-26.1,1.5-52.1,2.9-78.1l-.1,1.5.1-1.5" style="fill: none;stroke: #000"/>
      <path id="path53-3" d="M282.2,230.5l.4-11.4" style="fill: none;stroke: #000"/>
      <path id="path53-4" d="M286.7,108.1a69.6,69.6,0,0,0-2.3-20.8l-1.5-31.7" style="fill: none;stroke: #000"/>
      <path d="M297.7,78.8l-3.3-8.7,3.7-1.8s6.2,10,3.2,11.5C297.6,81.6,297.7,79.1,297.7,78.8Z" style="fill: #ffdced;stroke: #fff;stroke-width: 0.26460000872612px"/>
      <path id="path53-5" d="M285.9,132.7c.3-7.7.6-15.6.7-24.5" style="fill: none;stroke: #000"/>
      <path d="M291.8,62s.5,7,2.6,8.1a1.6,1.6,0,0,0,1.5.2,4.52,4.52,0,0,0,2.2-1.9l-2.2-7" style="fill: #f2f26d;stroke: #fff;stroke-width: 0.26460000872612px"/>
      <path d="M290.7,151.7l4.2-41.4,2.7-27,3.1-2.9c2.8-3.4,7.8-5.2,7.8-5.2l8.4,3.9a45.19,45.19,0,0,0,4.5,15.2l3.1,22.6-2.4,23.8-3,29.9-2,19.6-1.3,8.6-8.2-.5-.2-36.2,5.1-33h0l-4.4-27.9-2.5,13.5-3.7,36.2,1.4,21L302,194.8l2.8,3.4-18.6-1.9,4-39.7.5-4.9" style="fill: #f2f26d;stroke: #fff;stroke-width: 0.26460000872612px"/>
      <path d="M283.3,202s-1.5,41.5-3.1,45.4-3.9,8.2-6.4,14.2a46.44,46.44,0,0,0-3.2,11.6s-.5,7.9-1.5,10.2-4.1,10.1-5.9,15-6,20.2-7.3,22.1-8.4,12.9-11.5,15.3-5,4.6-4.9,5.3l.8,3.8s4.2,2.1,4.9,2l1.8-.4s1.3.9,2,.7a7.44,7.44,0,0,0,2.2-1.4c.6.5,1.2,1.1,1.8,1.5.9.6,2.9-.6,2.9-.6l3.2-2a15.17,15.17,0,0,0,2.1.3,5.92,5.92,0,0,0,3.2-.6l2.4-1.2,2.6-.7a5.34,5.34,0,0,0,2.5-.5c1-.6,6.2-1.6,8.2-2.6s2.6-.7,5.4-2.6,5.9-9.8,6.5-10.4,4.6-16.8,8.1-19.8,9.5-9.4,9.5-9.4,8.8-8.1,8.9-9.6-.4-7.6-.4-7.6-3-7.4-4.2-9.6-7.9-12.4-6-16.7,6.1-27.9,6.1-27.9l8.5-29.9s11.9-23.3,15.9-43.2a112.44,112.44,0,0,0,1.3-35.2" style="fill: none;stroke: #000"/>
    </g>
  </g>
</svg>
