<svg id="Leg3" data-name="Layer 1" xmlns="http://www.w3.org/2000/svg" viewBox="0 0 425.6 349.7">
  <title>Artboard 1</title>
  <g id="svg8_copy_2" data-name="svg8 copy 2">
    <g id="cuisse">
      <path d="M283.4,58.7c-.7-12.1,4.3-25.1,14.3-32.1,3-2,6-4,10-5,26-9,52-18,80-21,8-1,16,0,24,0,6,17,8,35,9,53,1,8,5,14,5,22,0,3-3,5-6,6-22,9-46,9-69,8-13,4-13,20-12,31v0" style="fill: none;stroke: #000"/>
      <path d="M407.6,52.8c2.6-5.5-8.3-8.4-27.2-4.2-14,3.1-27.6,6-31.9,9.1L333,65.6,318.6,76l-3.1,3.1,3.1,4.4L326,75l8.6-4.2,7.8-.5h0l-4,9.7-10.6,7.4-8.5.7,2.1,4,18-3.6,45-5.7L410,73.9" style="fill: #ffdced;stroke: #fff;stroke-width: 0.26460000872612px"/>
      <polyline points="403.1 5.6 375.8 7.5 335.4 15.5 317.4 25.7 296.7 40.2 288.4 51.8 290.4 62.5 294.4 61.7 299.1 55.7 301.8 51.8 303.7 46 306.6 40.9 320.3 36.6 328.1 34.1 335.1 32.3 341.6 32.6 351 32.4 359.2 31.4 372.7 29.3 386.6 28.6 394.1 27.1 401.7 26.6 405.3 26.1 405.3 24.4" style="fill: #ffdced;stroke: #fff;stroke-width: 0.26460000872612px"/>
      <path id="path169" d="M405.7,29.2c-16.8.9-34.5,1.4-48.5,3.8l-16.9,2.5c-8.5,2.2-16.6,4-24.6,5.7l-4.2.9-3.4,4.4c-1.1,6.5-2.8,9.8-4.4,14,.2,2.7.9,5.1,3,6.8,4.4,3.1,7.7,3.8,11.2,4.9l7.4-1.5c3.2-5.9,4.8-12.6,11.7-16.7a108.78,108.78,0,0,1,17-4.4c17.6-4.2,35.2-4.4,52.8-5.9" style="fill: #f2f26d;stroke: #fff"/>
    </g>
    <g id="pied">
      <path id="path53" d="M280.8,142.2l.5-5.1" style="fill: none;stroke: #000;stroke-width: 0.26460000872612px"/>
      <path id="path53-2" d="M279.3,157.3l2.2-20.2.3-3.2" style="fill: none;stroke: #000"/>
      <path d="M321.7,91.5c.3-.2,1.2.9,1.2.9" style="fill: #f2f26d;stroke: #fff;stroke-width: 0.26460000872612px"/>
      <path d="M272.7,220q3.45-39,8.1-77.8l-.2,1.5.2-1.5" style="fill: none;stroke: #000"/>
      <path id="path53-3" d="M271.5,231.3l1.2-11.3" style="fill: none;stroke: #000"/>
      <path id="path53-4" d="M284.1,109.5a73.22,73.22,0,0,0-.9-20.9l.6-31.7" style="fill: none;stroke: #000"/>
      <path d="M297.1,81l-2.7-8.9,3.8-1.5s5.5,10.4,2.4,11.7C296.8,83.8,297,81.3,297.1,81Z" style="fill: #ffdced;stroke: #fff;stroke-width: 0.26460000872612px"/>
      <path id="path53-5" d="M281.8,134c.8-7.7,1.6-15.5,2.3-24.4" style="fill: none;stroke: #000"/>
      <path d="M292.3,60.8s.1,10,2.1,11.3a2,2,0,0,0,1.5.3,4.09,4.09,0,0,0,2.3-1.8l-1.8-11.1" style="fill: #f2f26d;stroke: #fff;stroke-width: 0.26460000872612px"/>
      <path d="M286.3,150.2l6.9-41,4.6-26.8,3.3-2.7c3-3.3,8.1-4.7,8.1-4.7l8.1,4.4a34.79,34.79,0,0,0,4.5,15.4l1.6,22.8-5,23.6-5,29.6-3.3,19.4-1.8,8.5-8.2-1,2.1-36.2,7.3-32.6h0L307,100.8l-3.4,13.3-6.1,35.8V171l-2.8,22.8,2.5,3.6-18.5-3.1,6.7-39.3.9-4.8" style="fill: #f2f26d;stroke: #fff;stroke-width: 0.26460000872612px"/>
      <path d="M274.6,203c-1.9,11.6-1.9,23.6-3.9,36.6-2,10-8,17-12,26-3,7-2,15-5,22-6,12-9,24-16,35-4,6-10,10-15,15-1,1-2,3-1,4,5,5,12,5,18,2a3.48,3.48,0,0,0,2,1c12-3,27-2,33-15,2-6,2-12,6-17,5-6,10-11,17-15,7-6,8-14,4-22a119.22,119.22,0,0,1-7-17c5-16,9-32,15-48,5-12,11-23,17-35a190,190,0,0,0,12.5-55.2" style="fill: none;stroke: #000"/>
    </g>
  </g>
</svg>
