<svg id="Leg4" data-name="Layer 1" xmlns="http://www.w3.org/2000/svg" viewBox="0 0 425.6 349.7">
  <title>Artboard 1</title>
  <g id="svg8_copy_3" data-name="svg8 copy 3">
    <g id="cuisse">
      <path d="M282.5,59.8c-.7-5.1.3-9.1,1.3-14.1a47.57,47.57,0,0,0,3-7,21.7,21.7,0,0,1,4-6c2-1,3-3,5-5,23-12,46-17,71-23,15-3,29-5,44-2,7,17,7,35,9,53,1,8,5,14,5,22,0,2-2,3-3,4-12,5-24,7-36,9-12,1-25-3-37,2-5.8,2.3-9.2,7.6-12.2,13.4" style="fill: none;stroke: #000"/>
      <path d="M406.7,53.9c2.6-5.5-8.3-8.4-27.2-4.2-14,3.1-27.6,6-31.9,9.1l-15.5,7.9L317.7,77.1l-3.1,3.1,3.1,4.4,7.4-8.5,8.6-4.2,7.8-.5h0l-4,9.7-10.6,7.4-8.5.7,2.1,4,18-3.6,45-5.7L409.1,75" style="fill: #ffdced;stroke: #fff;stroke-width: 0.26460000872612px"/>
      <polyline points="402.3 5.7 376.7 7.2 338.8 13.7 322 22 302.5 33.7 294.8 43.1 296.6 51.8 300.4 51.2 304.8 46.3 307.3 43.1 309.1 38.4 311.8 34.3 324.7 30.8 332 28.8 338.6 27.3 344.6 27.6 353.5 27.4 361.2 26.6 373.8 24.9 386.9 24.3 393.9 23.1 401 22.7 404.4 22.3 404.4 20.9" style="fill: #ffdced;stroke: #fff;stroke-width: 0.26460000872612px"/>
      <path id="path169" d="M404.9,28.3c-15.3.8-31.5,1.3-44.3,3.5L345.2,34c-7.8,2-15.1,3.6-22.4,5.2L319,40l-3.1,4c-1,5.9-2.5,8.9-4,12.7.2,2.5.8,4.6,2.7,6.2,4,2.8,7,3.4,10.2,4.4l6.8-1.4c2.9-5.3,4.4-11.4,10.7-15.1a90.43,90.43,0,0,1,15.5-4c16.1-3.8,32.1-4,48.2-5.3" style="fill: #f2f26d;stroke: #fff"/>
    </g>
    <g id="pied">
      <path id="path53" d="M269.5,143.8l1.1-5" style="fill: none;stroke: #000;stroke-width: 0.26460000872612px"/>
      <path id="path53-2" d="M266.3,158.7l4.4-19.9.7-3.1" style="fill: none;stroke: #000"/>
      <path d="M315.8,98c.3-.1,1.1,1.1,1.1,1.1" style="fill: #f2f26d;stroke: #fff;stroke-width: 0.26460000872612px"/>
      <path d="M252.8,220.2c5.2-25.6,10.8-51,16.7-76.4l-.3,1.5.3-1.5" style="fill: none;stroke: #000"/>
      <path id="path53-3" d="M250.3,231.3l2.5-11.1" style="fill: none;stroke: #000"/>
      <path id="path53-4" d="M276.5,111.7a70,70,0,0,0,1.4-20.9L282,59.4" style="fill: none;stroke: #000"/>
      <path d="M294.5,87.8l-3.7-12.2,3.9-1.1s4.4,13,1.1,13.9C291.9,89.5,294.4,88.1,294.5,87.8Z" style="fill: #ffdced;stroke: #fff;stroke-width: 0.26460000872612px"/>
      <path id="path53-5" d="M271.4,135.7c1.7-7.5,3.3-15.2,5.1-24" style="fill: none;stroke: #000"/>
      <path d="M294.8,47.7s-5.8,20.1-3.9,21.5c.4.4.9,6.9,1.4,6.8,1.4-.1,3.2-10.3,3.2-10.3l4.9-14.5" style="fill: #f2f26d;stroke: #fff;stroke-width: 0.26460000872612px"/>
      <path d="M279.7,144.2l11.5-40,7.5-26.1,3.5-2.3c3.4-2.9,8.5-3.7,8.5-3.7l7.6,5.3A48.89,48.89,0,0,0,320,93.1l-1,22.8-6.6,23-8.3,28.9-5.4,18.9-2.8,8.2-8-2,6.2-35.7L305,125.6h0l.7-28.2-4.8,12.8-10,34.9L288.5,166l-5.3,22.3,2.1,3.8-18-5.2,11-38.3,1.4-4.4" style="fill: #f2f26d;stroke: #fff;stroke-width: 0.26460000872612px"/>
      <path d="M256.5,203.5c-3.1,11.3-4.5,23.2-7.9,35.9-3.1,9.7-9.9,16-14.8,24.5-3.8,6.6-3.7,14.7-7.4,21.3-7.3,11.3-11.6,22.8-19.8,33-4.7,5.5-11.1,8.8-16.6,13.2-1.1.9-2.3,2.8-1.4,3.9,4.4,5.5,11.4,6.3,17.7,4a3.47,3.47,0,0,0,1.9,1.2c12.3-1.6,27.1,1,34.5-11.2,2.7-5.7,3.3-11.7,7.9-16.2,5.6-5.4,11.2-9.8,18.6-13,7.6-5.2,9.5-13,6.4-21.4a137.39,137.39,0,0,1-5.1-17.7c6.8-15.3,12.5-30.8,20.3-46,6.3-11.4,13.5-21.6,20.8-32.9a188.11,188.11,0,0,0,18.5-53.4l6.6-22.6" style="fill: none;stroke: #000"/>
    </g>
  </g>
</svg>
