<svg id="Leg5" data-name="Layer 1" xmlns="http://www.w3.org/2000/svg" viewBox="0 0 425.6 349.7">
  <title>Artboard 1</title>
  <g id="svg8_copy_4" data-name="svg8 copy 4">
    <g id="cuisse">
      <path d="M283.1,50.2V48.8l4.3-11.2,6.2-7.7c.7-.8,1.4-1.7,2.3-2.6,23-12,46-17,71-23,15-3,29-5,44-2,7,17,7,35,9,53,1,8,5,14,5,22,0,2-2,3-3,4-12,5-24,7-36,9-12,1-25-3-37,2-5.8,2.3-9.2,7.6-12.2,13.4" style="fill: none;stroke: #000"/>
      <path d="M404.4,51.5l5.2,22.1L384,82.5,326.5,94.3l-18,3.6-2.1-4,8.5-.7,10.6-7.4,4-9.7h0l-7.8.5-8.6,4.2-7.4,8.5-3.1-4.4,3.1-3.1,14.4-10.4,15.5-7.9c4.3-3.1,17.9-6,31.9-9.1,31.4-4.8,52.9-2.4,27.2,4.2" style="fill: #ffdced;stroke: #fff;stroke-width: 0.26460000872612px"/>
      <polyline points="402.2 6.4 374.9 8.3 334.5 16.3 316.5 26.5 295.8 41 287.5 52.6 289.5 63.3 293.5 62.5 298.2 56.5 300.9 52.6 302.8 46.8 305.7 41.7 319.4 37.4 327.2 34.9 334.2 33.1 340.7 33.4 350.1 33.2 358.3 32.2 371.8 30.1 385.7 29.4 393.2 27.9 400.8 27.4 404.4 26.9 404.4 25.2" style="fill: #ffdced;stroke: #fff;stroke-width: 0.26460000872612px"/>
      <path id="path169" d="M404.8,30c-16.8.9-34.5,1.4-48.5,3.8l-16.9,2.5c-8.5,2.2-16.6,4-24.6,5.7l-4.2.9-3.4,4.4c-1.1,6.5-2.8,9.8-4.4,14,.2,2.7.9,5.1,3,6.8,4.4,3.1,7.7,3.8,11.2,4.9l7.4-1.5c3.2-5.9,4.8-12.6,11.7-16.7a108.78,108.78,0,0,1,17-4.4c17.6-4.2,35.2-4.4,52.8-5.9" style="fill: #f2f26d;stroke: #fff"/>
    </g>
    <g id="pied">
      <path id="path53" d="M260.7,144.4l1.5-4.9" style="fill: none;stroke: #000;stroke-width: 0.26460000872612px"/>
      <path id="path53-2" d="M256.1,158.9l6.3-19.3,1-3.1" style="fill: none;stroke: #000"/>
      <path d="M311,103c.4-.1,1,1.2,1,1.2" style="fill: #f2f26d;stroke: #fff;stroke-width: 0.26460000872612px"/>
      <path d="M237,218.9q11.25-37.5,23.7-74.5l-.5,1.4.5-1.4" style="fill: none;stroke: #000"/>
      <path id="path53-3" d="M233.5,229.7l3.5-10.9" style="fill: none;stroke: #000"/>
      <path id="path53-4" d="M282.8,51.5l.3-1.3" style="fill: none;stroke: #000"/>
      <path id="path53-5" d="M270.6,113c1.5-5.5,3.2-11.5,5.5-31.8l6.7-29.7" style="fill: none;stroke: #000"/>
      <path d="M287.9,79.4l.5-9.3,4.1-.1s1.6,11.7-1.7,11.8C286.7,81.9,287.8,79.7,287.9,79.4Z" style="fill: #ffdced;stroke: #fff;stroke-width: 0.26460000872612px"/>
      <path id="path53-6" d="M263.3,136.5c2.3-7.3,4.7-14.9,7.2-23.4" style="fill: none;stroke: #000"/>
      <path d="M289.3,61.6s-2.3,6.7-.9,8.5a2.22,2.22,0,0,0,1.3.8,4.68,4.68,0,0,0,2.8-.9l.8-7.3" style="fill: #f2f26d;stroke: #fff;stroke-width: 0.26460000872612px"/>
      <path d="M265.9,145,281,106.3,290.9,81l3.7-1.9c3.6-2.6,8.9-2.9,8.9-2.9l7.1,6a46.59,46.59,0,0,0,.3,15.8l-3.1,22.6-8.7,22.3-10.9,28-7.1,18.3-3.5,7.9-7.8-2.8,9.5-35L293,128.9h0l3.3-28-6,12.3L277,147.1l-4.3,20.6-7.4,21.7,1.8,4-17.4-6.8,14.5-37.2,1.7-4.4" style="fill: #f2f26d;stroke: #fff;stroke-width: 0.26460000872612px"/>
      <path d="M242.3,202.6c-4.2,10.9-6.6,22.7-11.2,35-4,9.4-11.3,15-17,23-4.4,6.2-5,14.3-9.4,20.5-8.3,10.5-13.7,21.7-22.8,31-5.1,5.1-11.8,7.8-17.7,11.6-1.2.8-2.5,2.6-1.8,3.8,3.9,5.9,10.7,7.3,17.2,5.6a3.68,3.68,0,0,0,1.8,1.4c12.4-.5,26.8,3.5,35.4-8,3.2-5.5,4.4-11.3,9.3-15.4,6.1-4.9,12-8.7,19.7-11.2,8.1-4.5,10.7-12.1,8.4-20.7a122.87,122.87,0,0,1-3.4-18.1c8.1-14.6,15.3-29.5,24.4-43.9,7.3-10.7,15.4-20.3,23.8-30.8,10.5-16.2,18.1-33,31-63.6l8.7-21.9" style="fill: none;stroke: #000"/>
    </g>
  </g>
</svg>
