<svg id="Leg6" data-name="Layer 1" xmlns="http://www.w3.org/2000/svg" viewBox="0 0 425.6 349.7">
  <title>Artboard 1</title>
  <g id="svg8_copy_5" data-name="svg8 copy 5">
    <g id="cuisse">
      <path d="M284.9,50.2V48.8l4.3-11.2,6.2-7.7c.7-.8,1.4-1.7,2.3-2.6,23-12,46-17,71-23,15-3,29-5,44-2,7,17,7,35,9,53,1,8,5,14,5,22,0,2-2,3-3,4-12,5-24,7-36,9-12,1-25-3-37,2a17.63,17.63,0,0,0-5.6,3.7" style="fill: none;stroke: #000"/>
      <path d="M406.2,51.4l5.2,22.1-25.6,8.9L328.3,94.2l-18,3.6-2.1-4,8.5-.7,10.6-7.4,4-9.7h0l-7.8.5-8.6,4.2-7.4,8.5-3.1-4.4,3.1-3.1,14.4-10.4,15.5-7.9c4.3-3.1,17.9-6,31.9-9.1,31.4-4.8,52.9-2.4,27.2,4.2" style="fill: #ffdced;stroke: #fff;stroke-width: 0.26460000872612px"/>
      <polyline points="404 6.3 376.7 8.2 336.3 16.2 318.3 26.4 297.6 40.9 289.3 52.5 291.3 63.2 295.3 62.4 300 56.4 302.7 52.5 304.6 46.7 307.5 41.6 321.2 37.3 329 34.8 336 33 342.5 33.3 351.9 33.1 360.1 32.1 373.6 30 387.5 29.3 395 27.8 402.6 27.3 406.2 26.8 406.2 25.1" style="fill: #ffdced;stroke: #fff;stroke-width: 0.26460000872612px"/>
      <path id="path169" d="M406.6,29.9c-16.8.9-34.5,1.4-48.5,3.8l-16.9,2.5c-8.5,2.2-16.6,4-24.6,5.7l-4.2.9L309,47.2c-1.1,6.5-2.8,9.8-4.4,14,.2,2.7.9,5.1,3,6.8,4.4,3.1,7.7,3.8,11.2,4.9l7.4-1.5c3.2-5.9,4.8-12.6,11.7-16.7a108.78,108.78,0,0,1,17-4.4c17.6-4.2,35.2-4.4,52.8-5.9" style="fill: #f2f26d;stroke: #fff"/>
    </g>
    <g id="pied">
      <path id="path53" d="M251.1,140.9l2.1-4.6" style="fill: none;stroke: #000;stroke-width: 0.26460000872612px"/>
      <path id="path53-2" d="M244.8,154.7l8.5-18.4,1.3-2.9" style="fill: none;stroke: #000"/>
      <path d="M305.9,105.6c.4-.1.9,1.3.9,1.3" style="fill: #f2f26d;stroke: #fff;stroke-width: 0.26460000872612px"/>
      <path d="M218.8,212.1c10.4-23.9,21.1-47.7,32.2-71.2l-.6,1.4.6-1.4" style="fill: none;stroke: #000"/>
      <path id="path53-3" d="M214.1,222.5l4.7-10.4" style="fill: none;stroke: #000"/>
      <path id="path53-4" d="M283.8,51.2l.4-1.2" style="fill: none;stroke: #000"/>
      <path id="path53-5" d="M264.5,110.8c2.2-5.3,4.5-11,9.1-31l10.1-28.7" style="fill: none;stroke: #000"/>
      <path d="M285.7,79.5l1.6-9.2,4.1.3s.3,11.8-3.1,11.6C284.1,81.9,285.5,79.8,285.7,79.5Z" style="fill: #ffdced;stroke: #fff;stroke-width: 0.26460000872612px"/>
      <path id="path53-6" d="M254.6,133.3c3.2-7,6.4-14.2,9.9-22.4" style="fill: none;stroke: #000"/>
      <path d="M289.1,62s-3.1,6.3-1.9,8.3a1.59,1.59,0,0,0,1.2.9,4.27,4.27,0,0,0,2.9-.6l1.6-7.2" style="fill: #f2f26d;stroke: #fff;stroke-width: 0.26460000872612px"/>
      <path d="M256.1,142.1l19.5-36.7,12.8-24,3.9-1.5c3.9-2.1,9.1-1.8,9.1-1.8l6.3,6.8a46.18,46.18,0,0,0-1.6,15.7l-5.7,22.1-11.2,21.1-14.1,26.5-9.2,17.4-4.4,7.5-7.4-3.6L267.6,158l17.2-28.6h0l6.5-27.5-7.4,11.6-17.1,32.1-6.7,20-9.8,20.7,1.3,4.2-16.5-8.8,18.7-35.3,2.3-4.3" style="fill: #f2f26d;stroke: #fff;stroke-width: 0.26460000872612px"/>
      <path d="M226,196.5c-5.4,10.4-9.2,21.8-15.2,33.5-5.1,8.9-13,13.6-19.6,20.9-5.1,5.7-6.6,13.6-11.7,19.3-9.5,9.5-16.1,19.9-26.2,28.1-5.7,4.4-12.6,6.3-19,9.5-1.2.7-2.8,2.3-2.2,3.5,3.2,6.3,9.8,8.5,16.4,7.6a3.54,3.54,0,0,0,1.6,1.6c12.3.9,26.3,6.6,36-3.8,3.8-5.1,5.7-10.8,11.1-14.2,6.6-4.1,13-7.3,20.9-8.9,8.5-3.5,12-10.8,10.7-19.6a125.14,125.14,0,0,1-1.3-18.3c9.8-13.6,18.6-27.5,29.4-40.8,8.5-9.8,17.7-18.4,27.2-27.9,12.3-14.9,21.8-30.7,38.2-59.6l11.2-20.7L345,96" style="fill: none;stroke: #000"/>
    </g>
  </g>
</svg>
