<svg  id="nerfs" xmlns="http://www.w3.org/2000/svg" viewBox="0 0 238.48 139.69">
  <title>Asset 6</title>
  <g id="Layer_2" data-name="Layer 2">
    <g id="svg8">
      <g id="Initial_Flux" data-name="Initial Flux">
        <path class="lineSegment nerfMotor" d="M41.72,138.26c-7.5.43-15,.51-22.5.36" style="fill: none;stroke: #f40f0f;stroke-width: 2px"/>
        <path class="lineSegment nerfMotor" d="M59.81,136.5c-6,.85-12,1.42-18.09,1.76" style="fill: none;stroke: #f40f0f;stroke-width: 2px"/>
        <path class="lineSegment nerfMotor" d="M83,131.6a166.24,166.24,0,0,1-23.19,4.9" style="fill: none;stroke: #f40f0f;stroke-width: 2px"/>
        <path class="lineSegment nerfMotor" d="M101.3,125c-2.68,1.11-5.36,2.22-8.08,3.23Q88.17,130.11,83,131.6" style="fill: none;stroke: #f40f0f;stroke-width: 2px"/>
        <path class="lineSegment nerfMotor" d="M125,116.73q-3.1.69-6.17,1.59A173,173,0,0,0,101.3,125" style="fill: none;stroke: #f40f0f;stroke-width: 2px"/>
        <path class="lineSegment nerfMotor" d="M143.94,113.68c-6.36.84-12.72,1.67-19,3" style="fill: none;stroke: #f40f0f;stroke-width: 2px"/>
        <path class="lineSegment nerfMotor" d="M169.4,108.76l-1.88.56c-7.69,2.23-15.63,3.3-23.58,4.36" style="fill: none;stroke: #f40f0f;stroke-width: 2px"/>
        <path class="lineSegment nerfMotor" d="M194.63,98.12a141.49,141.49,0,0,1-25.23,10.64" style="fill: none;stroke: #f40f0f;stroke-width: 2px"/>
        <path class="lineSegment nerfMotor" d="M211.29,87.58a141.9,141.9,0,0,1-16.66,10.54" style="fill: none;stroke: #f40f0f;stroke-width: 2px"/>
        <path class="lineSegment nerfMotor" d="M226.81,73.8a44.68,44.68,0,0,1-3.59,3.82,125.6,125.6,0,0,1-11.93,10" style="fill: none;stroke: #f40f0f;stroke-width: 2px"/>
        <path class="lineSegment nerfMotor" d="M232.12,65.82a45.94,45.94,0,0,1-5.31,8" style="fill: none;stroke: #f40f0f;stroke-width: 2px"/>
        <path class="lineSegment nerfSensitive" d="M237.48,43.61a47.3,47.3,0,0,1-5.36,22.31" style="fill: none;stroke: #0a227a;stroke-width: 2px"/>
        <path class="lineSegment nerfSensitive" d="M232.12,23a45.65,45.65,0,0,1,5,15.37,46.84,46.84,0,0,1,.36,5.29" style="fill: none;stroke: #0a227a;stroke-width: 2px"/>
        <path class="lineSegment nerfSensitive" d="M218,6.79A47.4,47.4,0,0,1,232.12,23" style="fill: none;stroke: #0a227a;stroke-width: 2px"/>
        <path class="lineSegment nerfSensitive" d="M200.39,1.19a18.51,18.51,0,0,1,7.43.43,30,30,0,0,1,5.6,2.3A44,44,0,0,1,218,6.79" style="fill: none;stroke: #0a227a;stroke-width: 2px"/>
        <path class="lineSegment nerfSensitive" d="M185.34,9.07c4.19-4.07,9.51-7.11,15-7.88" style="fill: none;stroke: #0a227a;stroke-width: 2px"/>
        <path class="lineSegment nerfSensitive" d="M172.88,30.2C175.36,24.08,178,18,182,12.82a34.4,34.4,0,0,1,3.32-3.75" style="fill: none;stroke: #0a227a;stroke-width: 2px"/>
        <path class="lineSegment nerfSensitive" d="M163.79,49.83A86.3,86.3,0,0,0,169,39.62c1.36-3.09,2.59-6.26,3.86-9.42" style="fill: none;stroke: #0a227a;stroke-width: 2px"/>
        <path class="lineSegment nerfSensitive" d="M152.88,64.57a101.37,101.37,0,0,0,10.91-14.74" style="fill: none;stroke: #0a227a;stroke-width: 2px"/>
        <path class="lineSegment nerfSensitive" d="M135,83c6.25-6.38,12.33-12.17,17.87-18.46" style="fill: none;stroke: #0a227a;stroke-width: 2px"/>
        <path class="lineSegment nerfSensitive" d="M113.23,102.26c4.35-2.52,8-4,11.59-8.24,3.41-4,6.82-7.56,10.19-11" style="fill: none;stroke: #0a227a;stroke-width: 2px"/>
        <path class="lineSegment nerfSensitive" d="M82.18,117.43l8.34-2.31c6.9-2,14-7.2,20-11.2.93-.62,1.83-1.16,2.71-1.66" style="fill: none;stroke: #0a227a;stroke-width: 2px"/>
        <path class="lineSegment nerfSensitive" d="M50.22,126.24c10-2.73,23.4-6.44,32-8.81" style="fill: none;stroke: #0a227a;stroke-width: 2px"/>
        <path class="lineSegment nerfSensitive" d="M19.92,132a116.14,116.14,0,0,1,14.2-1.35c1-1.6,2,.7,3-.9.13,0,5.65-1.45,13.1-3.48" style="fill: none;stroke: #0a227a;stroke-width: 2px"/>
        <path class="lineSegment nerfSensitive" d="M0,134.12C6.66,134,13.3,132.9,19.92,132" style="fill: none;stroke: #0a227a;stroke-width: 2px"/>
      </g>
    </g>
  </g>
</svg>
