<svg id="leg" xmlns="http://www.w3.org/2000/svg" viewBox="0 0 443.01 396.66">
  <title>Artboard 2</title>
  <g id="cuisse">
    <path d="M289.34,66.75c1.3-14.9,7.3-28.9,20.3-36.9,36-10,72-23,110-21,4,26,7,51,12,77-7,4-14,7-22,8a58.53,58.53,0,0,0-13,2h-5c-3,1-5,2-8,2-9,1-17-2-26,0-6,0-10,5-12,11-1,5-1,11,.6,15.6" style="fill: none;stroke: #000"/>
    <path d="M413.54,60.85c2.6-5.5-8.3-8.4-27.2-4.2-14,3.1-27.6,6-31.9,9.1l-15.5,7.9-14.4,10.4-3.1,3.1,3.1,4.4,7.4-8.5,8.6-4.2,7.8-.5h0l-4,9.7-10.6,7.4-8.5.7,2.1,4,18-3.6,45-5.7,25.6-8.9" style="fill: #ffdced;stroke: #fff;stroke-width: 0.26460000872612px"/>
    <polyline points="409.04 13.65 381.74 15.55 341.34 23.55 323.34 33.75 302.64 48.25 294.34 59.85 296.34 70.55 300.34 69.75 305.04 63.75 307.74 59.85 309.64 54.05 312.54 48.95 326.24 44.65 334.04 42.15 341.04 40.35 347.54 40.65 356.94 40.45 365.14 39.45 378.64 37.35 392.54 36.65 400.04 35.15 407.64 34.65 411.24 34.15 411.24 32.45" style="fill: #ffdced;stroke: #fff;stroke-width: 0.26460000872612px"/>
    <path id="path169" d="M411.64,37.25c-16.8.9-34.5,1.4-48.5,3.8l-16.9,2.5c-8.5,2.2-16.6,4-24.6,5.7l-4.2.9-3.4,4.4c-1.1,6.5-2.8,9.8-4.4,14,.2,2.7.9,5.1,3,6.8,4.4,3.1,7.7,3.8,11.2,4.9l7.4-1.5c3.2-5.9,4.8-12.6,11.7-16.7a103.31,103.31,0,0,1,17-4.4c17.6-4.2,35.2-4.4,52.8-5.9" style="fill: #f2f26d;stroke: #fff"/>
  </g>
  <g id="pied">
    <path id="path53" d="M293,149.75v-5.1" style="fill: none;stroke: #000;stroke-width: 0.26460000872612px"/>
    <path id="path53-2" data-name="path53" d="M293,165l.1-20.3v-3.2" style="fill: none;stroke: #000"/>
    <path d="M328.44,95.05c.3-.2,1.3.8,1.3.8" style="fill: #f2f26d;stroke: #fff;stroke-width: 0.26460000872612px"/>
    <path d="M293,228c-.4-26.1-.4-52.1,0-78.2v0" style="fill: none;stroke: #000"/>
    <path id="path53-3" data-name="path53" d="M293,239.35V228" style="fill: none;stroke: #000"/>
    <path id="path53-4" data-name="path53" d="M292.94,116.85c-.2-5.7-.4-11.9-.9-18.6l-2.7-31.6" style="fill: none;stroke: #000"/>
    <path d="M302.84,87.15l-3.6-8.6,3.6-1.9s6.6,9.8,3.6,11.4C302.84,90,302.84,87.45,302.84,87.15Z" style="fill: #ffdced;stroke: #fff;stroke-width: 0.26460000872612px"/>
    <path id="path53-5" data-name="path53" d="M293.14,141.45c0-7.7,0-15.6-.2-24.5" style="fill: none;stroke: #000"/>
    <path d="M296.34,70.55s.8,7,2.9,8a1.6,1.6,0,0,0,1.5.1,4.3,4.3,0,0,0,2.1-2l-2.5-6.9" style="fill: #f2f26d;stroke: #fff;stroke-width: 0.26460000872612px"/>
    <path d="M298.62,160.18l2.64-41.48L303,91.58l3-3c2.68-3.55,7.55-5.45,7.55-5.45l8.56,3.55a46,46,0,0,0,5.07,15l3.95,22.49-1.52,23.89-1.91,30-1.25,19.64-.94,8.64-8.22-.2-1.58-36.2,3.85-33.16h0L314.14,109l-2,13.57-2.31,36.26,2.15,21-.43,22.93,2.88,3.27-18.68-1.19L298.31,165l.31-4.8" style="fill: #f2f26d;stroke: #fff;stroke-width: 0.26460000872612px"/>
    <path d="M293.13,210.83s.08,41.49-1.41,45.42-3.6,8.39-5.91,14.4A48.4,48.4,0,0,0,283,282.41s-.14,7.92-1.09,10.22-3.71,10.29-5.34,15.19-5.2,20.42-6.41,22.41-7.9,13.18-10.84,15.77-4.86,4.75-4.69,5.46l.9,3.72s4.24,2,4.95,1.81l1.77-.43s1.32.81,2,.64a8,8,0,0,0,2.1-1.45,13,13,0,0,0,1.85,1.43c.88.54,2.84-.68,2.84-.68l3.07-2.06s.4.09,2.12.24a5.83,5.83,0,0,0,3.2-.78l2.31-1.31,2.62-.82a5.45,5.45,0,0,0,2.48-.6c1-.62,6.13-1.86,8.13-2.91s2.62-.82,5.33-2.79,5.48-10,6.06-10.68,4-16.93,7.37-20,9.11-9.72,9.11-9.72,8.48-8.44,8.49-9.95-.7-7.53-.7-7.53-3.27-7.29-4.53-9.42-8.37-12.07-6.61-16.44,5-28.08,5-28.08l7.35-30.15s9.91-23.93,14.31-43.79,0-35.26,0-35.26" style="fill: none;stroke: #000"/>
  </g>
</svg>
