<svg id="moelle" xmlns="http://www.w3.org/2000/svg" viewBox="0 0 238.48 139.69">
  <title>Asset 4</title>
  <g id="Layer_2" data-name="Layer 2">
    <g id="svg8">
      <path class="moteur" d="M232.12,65.82a44.71,44.71,0,0,1-8.9,11.8,140.18,140.18,0,0,1-55.7,31.7c-15.9,4.6-32.9,4.3-48.7,9-8.8,2.6-17,6.7-25.6,9.9-23.5,8.8-49,10.9-74,10.4" style="fill: none;stroke: #f40f0f;stroke-width: 6px"/>
      <path class="sensitif" d="M0,134.12c11.4-.2,22.8-3.3,34.1-3.5,1-1.6,2,.7,3-.9.4.1,52.7-14.4,53.4-14.6,6.9-2,14-7.2,20-11.2,5.6-3.7,10-4.8,14.3-9.9,16.9-19.6,34-30.7,44.2-54.4,4-9.1,6.9-18.9,13-26.8s16.2-13.8,25.8-11.2a30,30,0,0,1,5.6,2.3,46.89,46.89,0,0,1,23.7,34.4,47.17,47.17,0,0,1-5,27.6" style="fill: none;stroke: #0a227a;stroke-width: 6px"/>
    </g>
  </g>
</svg>
