<svg id="moelle2" xmlns="http://www.w3.org/2000/svg" viewBox="0 0 325.69 148.92">
  <title>Asset 3</title>
  <g id="Layer_2" data-name="Layer 2">
    <g id="svg8">
      <g id="layer4">
        <g id="Moelle_épinière" data-name="Moelle épinière">
          <path id="path133" d="M273.37,135.4l-16,.71c-4.7.5-13.4-.9-22-2.3l-8.3-3-.8,2.3-.8.8-14.4,5.3c-11.1-1-22.2-1.5-33.3-4.5l-12-4.6-3.8-24.2-.8,25.8c-17.7,3.6-33.8,6.7-45.5,8.3-10.1-2.4-20.2-3.3-30.3-17.4,7.8,2.1-19.9,22.7-33.3,25.8-10.4-1.2-20.7-2.4-31.1-7.6a29.62,29.62,0,0,1-18.9,0l-1.5-14.4,4.5-2.3c2-15,5.8-29.3,19.7-40.2l9.8-6.8,9.1-10.6L54.23,46l12.1-20.5,18.2-14.4c12.2-.8,22.8-4.3,32.6-5.7,13-1.9,24.5-1.9,36.3-4.1l3,4.5,5.3-5.3c30.2,1.3,58.7-2.6,84.9,14.4l22.7,25.8s12.75,26.4,17.34,29.76,8.25,16.28,8.25,16.28,8,.22,8.94,2.36.08-1.24,2.53,6.4,12.68,16.2,12.68,16.2l6.12,2.79v14.34s-9.78,2.44-14.37,2.14-11.31-4-11.31-4-12.7,10.17-15.59,8.4Z" style="fill: #eaeaea;stroke: #000"/>
          <path id="path59" d="M88.15,90.46l7.63-4.68s1.2,4,8.17-2.29l7-6.43L116.15,66,110.92,54.3l-8.17-11.66-7-7.62-5.88-1.2-2.29-2.29-.55-4.68,7-5.23,12.86,4.14,13.4,8.71,13.39,8.72,5.23,10.45,1.75,11.11,2.94,8.72,10.45,6.42h14l6.43-1.19,2.29-7.63,2.29-14.6,5.22-8.71L192,39.59l11.65-5.23,10.46-5.23,7-2.94,8.72,1.2,5.23,1.2L220.93,39.05S215.05,49.5,211,55.93s-4.14,17.54-4.14,17.54l4.69,8.17L225,85.12l7,2.94,6.42,8.72.55,9.91L230.74,119l-14.6,8.17-13.4,2.94L194,127.82l-9.91-5.88L180,114.31l2.29-8.71L177,95.69l-7-4.14L156,93.84l-7-2.29-7,7.62-4.14,5.89s6.43,1.19,2.29,9.91A64,64,0,0,1,131.51,129l-15.15.54-19.82-5.88-6.43-4L86,115,83,102.11l2.29-9.91Z" style="fill: #9b9b9b;stroke: #545454;stroke-width: 0.75px"/>
          <path id="path155" d="M32.73,123.41H35v.1c.1.1.3-.1.4,0v.1h.2c-5.4-1.2,1.3,0,2,0h1.3v-.1h.4a.1.1,0,0,0,.1-.1c.1,0,.2.1.3,0v-.1h.1v-.1c.1-.1.2.1.3,0v-.1h.1V123h.1v-.1h.1v-.1c.1-.1.2.1.3,0v-.1h.1a.1.1,0,0,0,.1-.1H41a.1.1,0,0,0,.1-.1h.1a.1.1,0,0,0,.1-.1l.1-.1v-.1h.1a.1.1,0,0,0,.1-.1h.1V122H42c.1,0,.2-.2.3-.3a.37.37,0,0,1,.3-.1.1.1,0,0,0,.1-.1.37.37,0,0,1,.3-.1l.3-.3.3-.3.1-.1v-.1c.1-.1.2.1.4-.1.3-.4,0-.5.3-.9l.3-.3V119c0-.4.3,0,.4-.1s0-.2,0-.3c.2-.5.1-.1.3-.5V118h.5v-.2H46c.6-.3-.1,0,.1-.3h.1v-.1h.1c.3-.3-.4,0,.1-.3h.1V117c.1-.1.2.1.3,0v-.1h.1v-.1a.1.1,0,0,1,.1-.1v-.1c.3-.3,0,.4.3-.1v-.1a.1.1,0,0,1,.1-.1.37.37,0,0,0,.1-.3.1.1,0,0,1,.1-.1v-.1h.1v-.1h.1c.1-.1,0-.2,0-.3a.1.1,0,0,1,.1-.1H48V115c0-.1.2-.2.3-.3v-.3l.3-.3V114a.1.1,0,0,1,.1-.1c0-.1-.1-.2,0-.3h.1v-.1h.1c.1-.1-.1-.2,0-.3H49v-.1h.1c.6-.3-.1,0,.1-.3h.2v-.1c.1-.3.1,0,.3-.1a.1.1,0,0,0,.1-.1l.1-.1v-.1H50a.1.1,0,0,0,.1-.1l.1-.1h.5a.37.37,0,0,0,.1-.3c0-.1.1-.2.1-.3s-.1-.2,0-.3H51v-.1a.1.1,0,0,1,.1-.1v-.3a.1.1,0,0,1,.1-.1v-.1l.1-.1v-.1l.3-.3c0-.1-.1-.2,0-.3h.1c.1-.1-.1-.2,0-.3h.1v-.1a.1.1,0,0,1,.1-.1l.1-.1h.1V109c.3-.3,0,.4.3-.1v-.1a.1.1,0,0,1,.1-.1v-.1h.1c.3-.3-.4,0,.1-.3h.1v-.1a.1.1,0,0,1,.1-.1V108c.1-.2.3,0,.4-.3v-.1a.1.1,0,0,1,.1-.1l.1-.1h.1c.1-.1,0-.2,0-.3s.1-.2.1-.3v-.1c0-.1.1-.3.1-.4.3-.6-.1.6.3-.4v-.1l.1-.1v-.1l.3-.3v-.1a.1.1,0,0,1,.1-.1V105h.1c.6-.3-.1,0,.1-.3h.1c.1-.1,0-.2,0-.3.3-1,0,.2.3-.4v-.2c0-.1.1-.2.1-.3v-.3h.1v-.1a.1.1,0,0,1,.1-.1v-.1h.1l.1-.1a.37.37,0,0,0,.1-.3v-.1h.1c.1-.1-.1-.2,0-.3s.1.3.3-.1v-.3h.1v-.1l.3-.3V101a.1.1,0,0,1,.1-.1v-.3a.1.1,0,0,1,.1-.1c0-.1-.1-.2,0-.3h.1v-.1a.1.1,0,0,1,.1-.1v-.1a.1.1,0,0,1,.1-.1c0-.1-.1-.2,0-.3h.1c.1-.1-.1-.3,0-.4s.1.3.3-.1v-.4c.1-.2.2-.3.3-.5v-.7a.1.1,0,0,1,.1-.1v-.1a.1.1,0,0,1,.1-.1v-.5h.1v-1.7h.1V88a.1.1,0,0,0-.1-.1v-.3a.1.1,0,0,0-.1-.1c-.1-.1.1-.3,0-.4-.3-.6.1.6-.3-.4v-.9h-.1v-.9a.1.1,0,0,0-.1-.1v-2c0-.1-.1-.2-.1-.3v-1.1c0-.1-.2-.1-.3-.3v-.7c0-.1-.1-.2-.1-.3V80c0-.1-.1-.2-.1-.3v-.9h-.1v-4h.1c.1-.1,0-.2,0-.3.3-.3,0,0,.1-.3.3-1,0,.2.3-.4v-.1a2.19,2.19,0,0,1,.3-.5.6.6,0,0,0,.1-.4c.1-.2,0-.5.1-.7s.4-.6.5-.9a12.2,12.2,0,0,0,.7-1.7c0-.2-.1-.4,0-.5s.2-.2.3-.3a.37.37,0,0,0,.1-.3V68a.1.1,0,0,1,.1-.1v-.8h.1V67a.1.1,0,0,1,.1-.1c0-.1-.1-.2,0-.3h.1c.1-.1,0-.2,0-.3a.1.1,0,0,1,.1-.1v-.1H60c.1-.1-.1-.3,0-.4h.1v-.1h.1c.1-.1-.1-.2,0-.3h.1c.1-.1-.1-.2,0-.3h.1c.1-.1-.1-.2,0-.3h.1v-.1h.1v-.1h.1c.1-.1-.1-.2,0-.3s.2.1.3,0v-.1h1.7v.1h.1c.1.1,0,.2,0,.3a.1.1,0,0,0,.1.1V65H63c.1.1-.1.3,0,.4h.1v5.7c0,.3,0-.1.1.3v1.5a.1.1,0,0,0,.1.1v.7c0,.1.1.2.1.3v5.4h.1V81h.1v.1h.1c.1.1-.1.2,0,.3h.1v.1h.1V82H64v.4a.1.1,0,0,0,.1.1v.1h.1c.1.1-.1.3,0,.4h.1c.1.1,0,.2,0,.3l.3.3c.1.1-.1.1,0,.3a.1.1,0,0,0,.1.1v.1h.1c.1.1-.1.2,0,.3h.1c.6.3-.1,0,.1.3h.1v.1a.1.1,0,0,0,.1.1v.3c.1.2.2.3.3.5s-.1.2,0,.3h.1c.6.3-.1,0,.1.3h.1v.1h.1v.1H66c.3.3-.4,0,.1.3h.1v.1a.1.1,0,0,0,.1.1v.1a.1.1,0,0,0,.1.1v.1c.3.3,0-.4.3.1v.1a.1.1,0,0,0,.1.1v.1l.3.3v.1h.1v.1c0,.1.1.2.1.3v.1a.1.1,0,0,0,.1.1c0,.1-.1.2,0,.3h.1l.3.3h.1c.1.1,0,.2,0,.3a.1.1,0,0,0,.1.1v.1h.1c.1.1-.1.2,0,.3h.1c.6.3-.1,0,.1.3h.1v.1c.1.3.1,0,.3.1.6.3-.1,0,.1.3h.1c.1.1-.1.2,0,.3H69v.1c0,.1.1.2.1.3h.1v.3a.1.1,0,0,0,.1.1c0,.1.1.2.1.3v.4c.1.3.2.5.3.8a.6.6,0,0,0,.1.4c.4.5.2-.1.3-.1h.2v.1h.1V94a.1.1,0,0,0,.1.1v.1h.1v.1a.1.1,0,0,0,.1.1c0,.1-.1.2,0,.3h.1v.1h.1c.1.1-.1.2,0,.3H71c.1.1,0,.2,0,.3s.1.2.1.3v.1a.1.1,0,0,0,.1.1V96c.1.1.2,0,.3,0a.1.1,0,0,1,.1.1l.1.1v.1h.1v.1h.1c.1.1-.1.2,0,.3H72a.1.1,0,0,1,.1.1h.1v.1h.1V97h.1c.3.3-.4,0,.1.3h.1v.1h.1v.1a.1.1,0,0,0,.1.1v.1h.1l.4.4v.1c.1.1.2-.1.3,0v.1h.1v.1c.3.3,0-.4.3.1v.1h.1v.1h.1v.1a.1.1,0,0,0,.1.1V99c.1.1.2-.1.3,0v.1a.1.1,0,0,0,.1.1v.1h.1c.1.1,0,.2,0,.3s.1.2.1.3H75v.4c0,.1.2.1.3.3v.4a.1.1,0,0,0,.1.1c0,.1-.1.2,0,.3h.1c.3.2.1.4.1.5a.1.1,0,0,0,.1.1v.4h.1v.1a.1.1,0,0,0,.1.1v.3a.1.1,0,0,0,.1.1v.4a.1.1,0,0,0,.1.1.37.37,0,0,1,.1.3h.4s-.4-.1,0,.1h.1c.1.1-.1.3,0,.4h.1v.1h.1v.7h-.1c-.1.1.1.2,0,.3h0v.1h-.1v.1h-.1c-.1.1.1.2,0,.3h-1.3c-.4,0,0,0-.1.1s-.2-.1-.3,0v.1h-.1v.1h-.1v.1h-.1v.1c-.1.1-.2,0-.3,0a.1.1,0,0,0-.1.1h-.1v.1H74v.1h-.1v.1c-.1.1-.2-.1-.3,0-.5.5,0,.1-.1.4a.1.1,0,0,1-.1.1.37.37,0,0,0-.1.3h-.1a.37.37,0,0,0-.1.3c-.1.1-.3-.1-.4,0v.1h-.4c-.4,0,0,0-.1.1h-.1a.1.1,0,0,0-.1.1c-.1,0-.2-.1-.3,0v.1c-.1.1-.2,0-.3,0a.1.1,0,0,0-.1.1h-.1v.1h-.4a.1.1,0,0,0-.1.1c-.1.1-.3-.1-.4,0a.1.1,0,0,0-.1.1h-.3a.1.1,0,0,0-.1.1h-.1c-.2.2.2.1-.1.1h-.5a.1.1,0,0,0-.1.1h0c0,.2-.2.1-.3.1-.3.1,0,.1-.1.3a.1.1,0,0,1-.1.1v.1h-.1v.1c-.3.3,0-.4-.3.1,0,.1.1.2,0,.3a.37.37,0,0,1-.3.1.37.37,0,0,0-.1.3.1.1,0,0,1-.1.1c-.1.2.2.1-.1.3h-.1c-.3.3.4,0-.1.3H67c-.6.3.1,0-.1.3h-1v.1c-.1.1-.2-.1-.3,0v.1c-.1.1-.2-.1-.3,0v.1h-.1v.1h-.1a.1.1,0,0,0-.1.1h-.1c-.2.1-.1.1-.1.3s-.1.2-.1.3-.1.7-.4.8h-.8v.1h-.1v.1H62c-.1.1.1.2,0,.3h-.9v.1H61v.1h-.1v.1a.1.1,0,0,1-.1.1l-.1.1c-.2.1-.1-.2-.3.1,0,.4,0,0-.1.1v.1c-.4.2-.4-.3-.5-.4h-.1v-.1h-.2v.3c0,.1-.2.2-.3.3v.1a.1.1,0,0,1-.1.1v.5H59a.1.1,0,0,0-.1.1h-.1v.1h-.1v.1h-.4a.1.1,0,0,0-.1.1h-.1a.1.1,0,0,0-.1.1h-.1v.1h-.1c-.3.3.4,0-.1.3h-.1c-.1.1.1.2,0,.3h-.1v.1h-.1a.1.1,0,0,0-.1.1h-.1v.1c-.3.3,0-.4-.3.1v.1c-.1.1-.2-.1-.3,0s0,.2,0,.3a.1.1,0,0,1-.1.1v.1h-.1v.1h-.1a.1.1,0,0,0-.1.1h-.1v.1H56c-.1.1.1.2,0,.3h-.1v.1c0,.1-.1.2-.1.3v.1c-.1.1-.3-.1-.4,0v.1h-.1v.5h-.1v.1a.1.1,0,0,1-.1.1v.1l-.3.3c0,.1.1.2,0,.3h-.1c-.1.1.1.2,0,.3h-.1c-.1.1.1.3,0,.4-.4,0,0,0-.1.1h-.1c-.1.1.1.3,0,.4h-.1c-.1.1,0,.2,0,.3a.1.1,0,0,1-.1.1l-.1.1H54c-.1.1,0,.2,0,.3a.1.1,0,0,1-.1.1l-.1.1c-.1,0-.2-.1-.3,0s.1.2,0,.3h-.1v.1c-.1.3-.1,0-.3.1a.1.1,0,0,0-.1.1h-.1c-.1.1.1.2,0,.3h-.1a.1.1,0,0,0-.1.1c-.1,0-.2-.1-.3,0v.1c-.1.1-.2-.1-.3,0v.1H52v.1c-.1.1-.2-.1-.3,0v.1h-.1v.1c-.3.3,0-.4-.3.1v.1h-.1l-.3.3h-.1c-.2.1-.2.3-.4.4h-.1v.1h-.1v.1h-.1a.1.1,0,0,0-.1.1h-.4v.1h-.4a.1.1,0,0,0-.1.1c-.1.1-.3-.1-.4,0s0,.3-.3.4h-1c-.3.2,0,.1-.3.1h-.5c-.6.3.1,0-.1.3-.1.1-.2,0-.3,0s-.2.1-.3.1h-.1c-1,.3.2,0-.4.3-.1,0-.2-.1-.3,0v.1c-.3.3-.2.1-.4.1s-.2.1-.3.1h-1.5a.1.1,0,0,1-.1-.1h-2.5a.1.1,0,0,0-.1.1h-3c-.3-.3.4,0-.1-.3h-4.5a.1.1,0,0,1-.1-.1c-.2-.1-.6.1-.8,0a.1.1,0,0,1-.1-.1h-1.7v-.1h-.7a.1.1,0,0,1-.1-.1h-1.6c-.1,0-.2-.1-.3-.1s-.4.1-.5,0V126h-.4v-.1c-.1-.1-.2,0-.3,0a.1.1,0,0,1-.1-.1c-.1,0-.2.1-.3,0h0c-.1-.1-.3.1-.4,0v-.1c-.1-.1-.2.1-.3,0v-.1h-.1v-.1h-.7v-.1H24a.1.1,0,0,1-.1-.1h-.1v-.1h-.1a.1.1,0,0,1-.1-.1h-.1V125c-.2-.2-.1.3-.3-.1,0-.6.1,0-.1-.4v-.1H23v-.1h0a.1.1,0,0,0-.1-.1v-.5h.5a.1.1,0,0,0,.1-.1h.1v-.1c.1-.1.2,0,.3,0a.1.1,0,0,0,.1-.1c.1,0,.2.1.3,0v-.1h.1v-.1c.1-.1.2.1.3,0v-.1c.1-.1.2.1.3,0V123c.1-.1.2.1.3,0v-.1h.5v-.1c.1-.1.2.1.3,0v-.1c.1-.1.2.1.3,0,.3-.3-.4,0,.1-.3.1,0,.2.1.3,0v-.1c0-.1.1-.2.1-.3l.3-.3c.2-.4-.2-.4.1-.7h.1v.3c0,.8,0-.1.1.9v.3a.1.1,0,0,0,.1.1v.1h.2c.4,0-.1-.1.3-.1h.5v-.1h.9c.1,0,3.2.9,3.2.9.3-.2-2.8-1-2.5-1h.5c2.2.7,2.1.9,2,1Z" style="fill: none;stroke: #000;stroke-width: 0.26460000872612px"/>
          <path id="path157" d="M269.23,123.71h-1c-.1,0-.2-.1-.3-.1h-.4v-.1h-.4a.1.1,0,0,1-.1-.1h-.3a.1.1,0,0,1-.1-.1c-.1,0-.2.1-.3,0v-.1c.1,0,.2.1.1.1-.3,0-.2-.2-.4-.3h-.1v-.1h-.1v-.1c-.1-.1-.3.1-.4,0v-.1a.1.1,0,0,0-.1-.1l-.1-.1h-.1a.1.1,0,0,1-.1-.1h-.7a.1.1,0,0,1-.1-.1h-.1v-.1c-.1-.1-.2,0-.3,0a.1.1,0,0,1-.1-.1c-.1-.1-.3.1-.4,0a.1.1,0,0,1-.1-.1c-.1,0-.2.1-.3,0s.1-.2,0-.3-.2,0-.3,0a.1.1,0,0,1-.1-.1h-.1a.1.1,0,0,1-.1-.1h-.1l-.3-.3h-.1v-.1h-.5a.1.1,0,0,1-.1-.1h-.3c-.6-.3.1,0-.1-.3-.1-.1-.3.1-.4,0s.2-.1-.1-.1h-.2v-.1c-.1-.1-.2.1-.3,0v-.1h-.1v-.1h-.1v-.1h-.1v-.1c-.1-.1-.2.1-.3,0V120c-.1-.1-.2.1-.3,0v-.2h-.1v-.1c-.1-.1-.2,0-.3,0a.1.1,0,0,1-.1-.1h-.1v-.1c-.1-.1-.3.1-.4,0v-.1c-.3-.6,0,.1-.3-.1v-.1c-.1-.1-.2.1-.3,0v-.1c-.3-.3,0,.4-.3-.1v-.1c-.1-.1-.2.1-.3,0v-.1h-.1v-.1c-.1-.1-.2.1-.3,0v-.1h-.1v-.1c-.1-.1-.2,0-.3,0a.1.1,0,0,1-.1-.1h-.5a.1.1,0,0,1-.1-.1h-.3a.1.1,0,0,1-.1-.1h-.1a.1.1,0,0,1-.1-.1h-.5a.1.1,0,0,1-.1-.1h-.3a.1.1,0,0,1-.1-.1c-.1,0-.2.1-.3,0v-.1h-.4a.1.1,0,0,1-.1-.1h-1.1c-.1,0-.3-.1-.4-.1h-2.2v.1h-.8c-.6.3.1,0-.1.3h-.1a.1.1,0,0,0-.1.1c-.1,0-.2-.1-.3,0v.1h-.5a.1.1,0,0,0-.1.1H247c-.3.3.4,0-.1.3h-.1v.1h-.1l-.3.3h-.1a.1.1,0,0,0-.1.1h-.5a.1.1,0,0,0-.1.1c-.1.1-.3-.1-.4,0a.1.1,0,0,0-.1.1h-.5c-.3.3.4,0-.1.3h-.1a.1.1,0,0,0-.1.1c-.1.1-.3-.1-.4,0a.1.1,0,0,0-.1.1h-.3a.1.1,0,0,0-.1.1h-1v.1h-2.1v-.1h-.1v-.1h-.1a.1.1,0,0,1-.1-.1h-.1v-.1h-.1v-.1h-.1v-.1l-.3-.3V119h-.1v-.1c-.3-.3,0,.4-.3-.1v-.1c-.1-.1-.2.1-.3,0s.1-.2,0-.3-.2.1-.3,0,.1-.2,0-.3-.3.1-.4,0,.1-.2,0-.3h-.1c-.1-.1.1-.2,0-.3h-.1c-.1-.1.1-.2,0-.3h-.1v-.4a.1.1,0,0,0-.1-.1v-.1c0-.1-.2-.1-.1-.1s.1.2.1.1-.1-.2-.1-.3v-.9h.1v-.1c.1-.1.2.1.3,0s-.1-.2,0-.3c.3-.3,0,.4.3-.1v-.1c.1-.1.3.1.4,0s-.1-.2,0-.3h.1v-.1h.8v-.1c.1-.1.2,0,.3,0a.1.1,0,0,0,.1-.1h.1v-.1h.4a.1.1,0,0,0,.1-.1h.7v-.1h.4a.1.1,0,0,0,.1-.1h.3l.3-.3h.3a.1.1,0,0,0,.1-.1h.1v-.1h.1v-.1h.1l.4-.4v-.1h.1a5.94,5.94,0,0,0,.4-.8v-.1l.3-.3v-.1h.1v-.1h.9a.1.1,0,0,0,.1-.1h.1c.3-.3-.4,0,.1-.3h.3a.1.1,0,0,0,.1-.1h.1v-.1h.1v-.1a.1.1,0,0,1,.1-.1l.1-.1h.1a.1.1,0,0,0,.1-.1l.1-.1v-.1h.1c0-.8-.1,0,.1-.3v-.1h.8V109c0-.1.1-.2.1-.3v-.4c0-.1.1-.2.1-.3v-.1h.1v-.1h.1c.1-.1,0-.2,0-.3a.1.1,0,0,1,.1-.1l.1-.1c.2-.1.1.2.3-.1v-.3c.3-.6,0,.1.3-.1.1-.1-.1-.2,0-.3a.37.37,0,0,1,.3-.1.1.1,0,0,0,.1-.1.37.37,0,0,1,.3-.1.1.1,0,0,0,.1-.1.6.6,0,0,1,.4-.1v-.1h.1c.1,0,.2-.1.3-.1v-.1a.37.37,0,0,1,.3-.1v-.1c.3-.3,0,.4.3-.1,0-.1-.1-.2,0-.3h.1V105c.4,0,0,0,.1-.1h.1c.3-.3-.4,0,.1-.3h.1v-.1c0-.1.1-.2.1-.3h.1c.1-.1-.1-.2,0-.3h.1c.1-.1-.1-.2,0-.3h.1v-.4c.1-.1.2-.1.3-.3v-.3c-.1-.2.2-.2.3-.4v-.3h.1v-.1h.1v-.1c.3-.6,0,.1.3-.1v-.1h.1c.1-.1,0-.2,0-.3l.3-.3v-.1a.1.1,0,0,1,.1-.1v-.1h.1v-.1a.1.1,0,0,1,.1-.1v-.1h.1c.1-.1,0-.2,0-.3l.3-.3v-.3a.1.1,0,0,1,.1-.1c.1-.4-.1-.1,0-.4,0-.1.1-.3.1-.4s.1-.2.1-.3v-.4c0-.1.1-.3.1-.4s.1-.3.1-.4a.1.1,0,0,1,.1-.1l.1-.1h.1v-.1h.1v-.1h.1v-.1a.1.1,0,0,1,.1-.1v-.1a.1.1,0,0,1,.1-.1v-.3a.1.1,0,0,1,.1-.1v-.1h.1v-.5h.1v-.5c0-.1.1-.2.1-.3v-.1c0-.1.1-.2.1-.3v-.4h.1v-.1a.1.1,0,0,1,.1-.1v-.1h.1v-.1h.1v-.7h.1c.1-.1-.1-.3,0-.4h.1c.1-.1,0-.2,0-.3a.1.1,0,0,1,.1-.1v-1.9c.2-1.2,0,.2.3-.7v-.5c0-.2.2-.3.3-.5v-.3a.1.1,0,0,1,.1-.1v-.3c0-.1.2-.2.3-.3v-.5a.1.1,0,0,1,.1-.1v-1c.1-.1.2-.1.3-.3v-.9c0-.1.1-.2.1-.3v-.3a.1.1,0,0,1,.1-.1v-.7h.1v-.4a.1.1,0,0,1,.1-.1v-7.9h-.1V74a.1.1,0,0,0-.1-.1v-2.2c0-.1-.1-.2-.1-.3s.1-.4,0-.5a.1.1,0,0,0-.1-.1v-2.6c0-.1-.1-.2-.1-.3v-.7h-.1v-.1a.1.1,0,0,0-.1-.1v-1.6h-.1v-.5a.1.1,0,0,0-.1-.1v-2.5h.4v.1h.1v.1h.1c.1.1,0,.2,0,.3a.1.1,0,0,0,.1.1.37.37,0,0,1,.1.3v.1h.1c.2,0,.3-.1.4.1v.1a.1.1,0,0,0,.1.1v.1h.1c.1.1,0,.2,0,.3.3.6,0-.1.3.1.1.1,0,.2,0,.3a.1.1,0,0,0,.1.1c.1.1-.1.3,0,.4a.1.1,0,0,0,.1.1v.3c.3.6.1-1.3.1.9a19.27,19.27,0,0,0,.1,2.4h.1v.1h.1v.1a.1.1,0,0,0,.1.1V69l.1.1c.1.1-.1.3,0,.4a.1.1,0,0,0,.1.1v.1h0l.3.3c0,.1-.1.2,0,.3h.1V71h.1v1.2c0,.1.1.2.1.3s-.1.2,0,.3h.1v.5h.1c.1.1-.1.3,0,.4h.1v.9h.1v1h.1v4.9a.1.1,0,0,1-.1.1v.5c0,.1-.1.2-.1.3v.3c0,.1-.2.1-.2.1v.9h-.1v4.8a.1.1,0,0,1-.1.1v.8h-.1v4.3a.1.1,0,0,1-.1.1v3.4c.3.6-.1-.6.3.4v.3a.1.1,0,0,0,.1.1v.4a.1.1,0,0,0,.1.1c0,.1-.1.2,0,.3h.1c.1.1,0,.2,0,.3a.1.1,0,0,0,.1.1c.1.1-.1.3,0,.4a.1.1,0,0,0,.1.1v.1c0,.1.1.2.1.3v.5h.1v.1a.1.1,0,0,0,.1.1v.4c0,.1.1.3.1.4v1.1c.2.4.1,0,.1-.1v-.2a.1.1,0,0,0,.1.1c0,.1-.1.2,0,.3h.1v.3c0,.1.2.2.3.3v.5h.1c.1.1-.1.2,0,.3h.1v.1h.1v.1h.1c.1.1,0,.3,0,.4s.1.3.1.4v.1a.1.1,0,0,0,.1.1v.1h.5v1.1a.1.1,0,0,0,.1.1v.1l.3.3c0,.1-.1.2,0,.3h.1c.1.1,0,.2,0,.3a.1.1,0,0,0,.1.1v.1a.1.1,0,0,0,.1.1v.1h.1v.1a.1.1,0,0,0,.1.1c0,.1-.1.2,0,.3h.1v.1c.3.3,0-.4.3.1v.3c.3,1,0-.2.3.4v.1c.1.1.2-.1.3,0v.1h.1v.1h.1v.1h.1c.1.1-.1.2,0,.3h.1c.1.1-.1.2,0,.3h.1a.1.1,0,0,1,.1.1l.1.1v.1h.1v.1h.1v.1h.1v.1h.1v.1h.1v.1a.1.1,0,0,0,.1.1c.1.2-.2.1.1.3h.1v.4c0,.2.2.3.3.5v.4c.1.2.4.1.5.1h.1v.1h.1v.1h.1v.1h.1v.1c.2.2.1-.2.1.1" style="fill: none;stroke: #000;stroke-width: 0.26460000872612px"/>
        </g>
      </g>
    </g>
  </g>
</svg>
