<svg id="moelle" xmlns="http://www.w3.org/2000/svg" width="284.34" height="70.92" viewBox="0 0 284.34 70.92">
  <title>Asset 2</title>
  <g id="Layer_2" data-name="Layer 2">
    <g id="svg8">
      <path class="sensitif" d="M284.09,42.64a21.23,21.23,0,0,1-3.79,9.17l.44,7-2,.13-.39-6.3-9.21,1-.2-2,9.8-1a19,19,0,0,0,2.79-16.65c-1.36-6.83-4.7-16.43-13-23.85a31.38,31.38,0,0,0-8.45-5.64C249.49-.25,238.74,3,233,4.77c-18,5.44-29.36,19-34.56,26.57-12.51,16.39-26.18,25.81-40.65,28-16.46,2.53-28.36-4.65-42.14-13C101.5,37.9,85.51,28.25,60.93,27.46c-9.83-.31-30.3-1-44.87,13.15-9.29,9-12.7,20.62-13.92,28.78H2.07a1,1,0,0,1,.1.45,1.09,1.09,0,1,1-2.17,0,1,1,0,0,1,.28-.72l-.12,0C2,57,7,46.61,14.67,39.17,29.85,24.46,50.88,25.14,61,25.46c25.11.81,41.33,10.6,55.65,19.23,13.45,8.12,25.07,15.12,40.81,12.71,13.94-2.14,27.17-11.3,39.33-27.23,5.32-7.76,17.06-21.69,35.59-27.31,6-1.84,17.25-5.24,28.51-.27a33.69,33.69,0,0,1,9,6c8.72,7.79,12.22,17.82,13.61,24.86A21,21,0,0,1,284.09,42.64Z" style="fill: none;stroke: #3aaddb;stroke-width: 6px"/>
    </g>
  </g>
</svg>
