<svg id="moelle2" xmlns="http://www.w3.org/2000/svg" width="187.88" height="153.04" viewBox="0 0 187.88 153.04">
  <title>Asset 1</title>
  <g id="Layer_2" data-name="Layer 2">
    <g id="Layer_1-2" data-name="Layer 1">
      <g>
        <path d="M20.78,19.27,9.3,19.91c5.12-8.63,13.23-15,26.06-17.75C45.79,0,79.13,9.22,91,9.22c11.12,0,43.86-10.42,53.75-8.48,14,2.74,23.56,9.88,30,19.51q.19.27.36.54a0,0,0,0,1,0,0l-.05.49-10.32-1.08c-.45-.05-.91-.08-1.37-.12-1.53-.12-3.06-.23-4.59-.32-4.78-.27-9.57-.41-14.35-.38a132.25,132.25,0,0,0-16.88,1.06c-4.81.66-9.82,1.61-14.18,3.85a16.82,16.82,0,0,0-2,1.16c-11.1,7.58-16.29,9.25-18,9.61l0,.11-.25,0-.36,0v-.12l0-.87.4-.08c-.29-.06-.57-.13-.85-.21a27.72,27.72,0,0,1-4.91-2c-1.56-.78-3.22-1.69-5.06-2.79-2.16-1.29-4.41-2.74-6.89-4.43C61.7,15.23,22.44,19.1,20.78,19.27Z" fill="#f6e2c2" stroke="#6f6c6d" stroke-miterlimit="10"/>
        <path d="M187.38,76.75c0,16.35-6.57,31.49-17.64,43.87-.54.6-1.09,1.2-1.65,1.79-17.4,18.31-44.87,30.13-75.33,30.13-29.84,0-56-11.34-72.78-29-.38-.4-.76-.81-1.13-1.22l-1.07-1.2C6.87,108.65.5,93.33.5,76.75.5,61.66.47,46,4,32.79l.12-.43c3,.6,6,1.11,9,1.6s6,1,9,1.6l.11,0,.45.08c4,.8,27.81,6.71,27.38,33.42-.34,21.84-13.75,30.25-21.76,35.27-2.75,1.72-4.91,3.08-5.84,4.44a6.24,6.24,0,0,0-.74,6c2.14,5.74,11.33,10.78,15.88,12,1.94.51,3.94,1.1,6.06,1.72,8.59,2.51,18.33,5.37,26.69,4.08,7-1.08,9.37-12.73,9-18.43-.07-1.06-.24-2.21-.42-3.43-.68-4.61-1.45-9.83,3.14-12.69,3.08-1.93,9.21-1.85,11.55-1.73,2.33-.12,8.47-.2,11.55,1.73,4.58,2.86,3.81,8.08,3.13,12.69-.18,1.22-.35,2.37-.41,3.43-.35,5.7,2,17.35,9,18.43,8.36,1.29,18.1-1.57,26.69-4.08,2.12-.62,4.12-1.21,6.06-1.72,4.55-1.21,13.74-6.25,15.88-12a6.24,6.24,0,0,0-.74-6c-.93-1.36-3.1-2.72-5.84-4.44-8-5-21.42-13.43-21.76-35.27-.13-8,2.13-16,7.48-22.17a35.38,35.38,0,0,1,14-9.49,31.22,31.22,0,0,1,5.7-1.72h0l.1,0,16.17-3.87c.13.31.25.62.36.94C186,46.05,187.38,61.74,187.38,76.75Z" fill="#f6e2c2" stroke="#6f6c6d" stroke-miterlimit="10"/>
        <g>
          <g>
            <g>
              <g>
                <g id="part2">
                  <path d="M94.56,96.32l-.07.92v.07l-.77,0-.9,0c-2.62-.06-7.66,0-10.18,1.61-4,2.52-3.34,7.19-2.68,11.71.19,1.23.36,2.4.43,3.51.38,6.2-2.12,18.29-9.87,19.48a29.76,29.76,0,0,1-4.56.33c-7.4,0-15.38-2.34-22.56-4.44-2.12-.62-4.11-1.21-6-1.72-3.62-1-10.72-4.49-14.53-9.18a12.21,12.21,0,0,1-2-3.42,7.19,7.19,0,0,1,.85-6.88c1.05-1.54,3.29-3,6.14-4.73,8.34-5.23,20.95-13.13,21.29-34.44C49.52,41,22.26,36.59,22,36.55h0l.15-1,.11,0,.45.08c4,.8,27.81,6.71,27.38,33.42-.34,21.84-13.75,30.25-21.76,35.27-2.75,1.72-4.91,3.08-5.84,4.44a6.24,6.24,0,0,0-.74,6c2.14,5.74,11.33,10.78,15.88,12,1.94.51,3.94,1.1,6.06,1.72,8.59,2.51,18.33,5.37,26.69,4.08,7-1.08,9.37-12.73,9-18.43-.07-1.06-.24-2.21-.42-3.43-.68-4.61-1.45-9.83,3.14-12.69,3.08-1.93,9.21-1.85,11.55-1.73Z" fill="#c49e69"/>
                  <g>
                    <path d="M164.83,108.79a6.24,6.24,0,0,1,.74,6c-2.14,5.74-11.33,10.78-15.88,12-1.94.51-3.94,1.1-6.06,1.72-8.59,2.51-18.33,5.37-26.69,4.08-7-1.08-9.37-12.73-9-18.43.06-1.06.23-2.21.41-3.43.68-4.61,1.45-9.83-3.13-12.69-3.08-1.93-9.22-1.85-11.55-1.73-2.34-.12-8.47-.2-11.55,1.73-4.59,2.86-3.82,8.08-3.14,12.69.18,1.22.35,2.37.42,3.43.35,5.7-2,17.35-9,18.43-8.36,1.29-18.1-1.57-26.69-4.08-2.12-.62-4.12-1.21-6.06-1.72-4.55-1.21-13.74-6.25-15.88-12a6.24,6.24,0,0,1,.74-6c.93-1.36,3.09-2.72,5.84-4.44,8-5,21.42-13.43,21.76-35.27.43-26.71-23.4-32.62-27.38-33.42l-.45-.08-.11,0c-3-.62-6-1.12-9-1.6s-6-1-9-1.6a50.9,50.9,0,0,1,5-12.19l.16-.26,11.48-.64c1.66-.17,40.92-4,54.67,5.36,2.48,1.69,4.73,3.14,6.89,4.43,1.84,1.1,3.5,2,5.06,2.79a27.72,27.72,0,0,0,4.91,2c.28.08.56.15.85.21l-.4.08,0,.87v.12l.36,0,.25,0,0-.11c1.68-.36,6.87-2,18-9.61a16.82,16.82,0,0,1,2-1.16c4.36-2.24,9.37-3.19,14.18-3.85a132.25,132.25,0,0,1,16.88-1.06c4.78,0,9.57.11,14.35.38,1.53.09,3.06.2,4.59.32.46,0,.92.07,1.37.12l10.32,1.08.05-.49a59.51,59.51,0,0,1,5.57,11l-16.17,3.87a30.75,30.75,0,0,0-5.8,1.74,35.38,35.38,0,0,0-14,9.49C139.36,53,137.1,61,137.23,69.08,137.57,90.92,151,99.33,159,104.35,161.73,106.07,163.9,107.43,164.83,108.79Z" fill="#c49e69"/>
                    <path d="M93.61,34.2l-.17.87,0,.11-.25,0-.37-.08,0-.87.4-.08Z" fill="#c49e69"/>
                  </g>
                </g>
                <g id="part2-2" data-name="part2">
                  <path d="M166.51,115.11a15,15,0,0,1-4,5.5,34.24,34.24,0,0,1-12.57,7.1c-1.93.51-3.92,1.1-6,1.72-7.19,2.1-15.17,4.44-22.57,4.44a29.89,29.89,0,0,1-4.57-.33c-7.74-1.19-10.24-13.28-9.86-19.48.07-1.11.24-2.28.42-3.51.67-4.52,1.36-9.19-2.67-11.71-2.53-1.57-7.56-1.67-10.18-1.6-.29,0-.56,0-.78,0l-.89,0v-.08l-.07-.91.91,0c2.33-.12,8.47-.2,11.55,1.73,4.58,2.86,3.81,8.08,3.13,12.69-.18,1.22-.35,2.37-.41,3.43-.35,5.7,2,17.35,9,18.43,8.36,1.29,18.1-1.57,26.69-4.08,2.12-.62,4.12-1.21,6.06-1.72,4.55-1.21,13.74-6.25,15.88-12a6.24,6.24,0,0,0-.74-6c-.93-1.36-3.1-2.72-5.84-4.44-8-5-21.42-13.43-21.76-35.27-.13-8,2.13-16,7.48-22.17a35.38,35.38,0,0,1,14-9.49,31.22,31.22,0,0,1,5.7-1.72h0l.1,0c.21,0,.41-.08.62-.11a4.2,4.2,0,0,1,.18,1v0l-.52.1-.15,0c-4.21.87-26.82,6.77-26.41,32.38.33,21.31,13,29.21,21.29,34.44,2.84,1.78,5.09,3.19,6.13,4.73A7.19,7.19,0,0,1,166.51,115.11Z" fill="#c49e69"/>
                  <path d="M165.51,19.43a2.94,2.94,0,0,1,0,.35c-.06.34-.19.47-.72.43s-.91-.08-1.37-.12c-1.53-.12-3.06-.23-4.59-.32-4.78-.27-9.57-.41-14.35-.38a132.25,132.25,0,0,0-16.88,1.06c-4.81.66-9.82,1.61-14.18,3.85a16.82,16.82,0,0,0-2,1.16c-11.1,7.58-16.29,9.25-18,9.61l-.27.06-.36,0v-.12l0-.87.4-.08c1.38-.29,6.47-1.81,17.69-9.47,4.32-2.95,9.79-4.14,14.87-4.95a124.06,124.06,0,0,1,18.57-1.33c5.18,0,10.35.13,15.52.47,1.85.12,3.7.28,5.56.43,0,0,.07,0,.09,0s0,0,0,0S165.51,19.39,165.51,19.43Z" fill="#c49e69"/>
                </g>
              </g>
              <path d="M22.24,35.58l-.21,1H22c-3-.61-6-1.11-9-1.6s-6.08-1-9.08-1.61L4,32.79l.09-.44h0c3,.6,6,1.11,9,1.6s6,1,9,1.6Z" fill="#c49e69"/>
            </g>
            <path d="M9.3,19.91l-.16.26v-.25Z" fill="#c49e69"/>
          </g>
          <g>
            <path d="M164.8,19.71l10.31,1.08Z" fill="#c49e69"/>
            <polygon points="175.16 20.29 175.11 20.79 175.11 20.8 175.06 21.29 164.74 20.21 164.8 19.71 164.85 19.22 165.46 19.28 174.74 20.25 175.16 20.29" fill="#c49e69"/>
          </g>
          <polygon points="181.33 32.68 181.04 32.75 165.31 36.52 164.79 36.65 164.64 36.68 164.41 35.7 164.51 35.68 180.68 31.81 181.09 31.71 181.33 32.68" fill="#c49e69"/>
        </g>
        <g>
          <path d="M104.39,67.58a3.79,3.79,0,0,1-1.07,2.55,9.17,9.17,0,0,1-6.73,2.5c-4.3,0-7.79-2.26-7.79-5a2.81,2.81,0,0,1,.07-.65c.49-2.47,3.76-4.39,7.72-4.39C100.9,62.54,104.39,64.8,104.39,67.58Z" fill="#707070"/>
          <path d="M103.39,69.48a2.81,2.81,0,0,1-.07.65,9.17,9.17,0,0,1-6.73,2.5c-4.3,0-7.79-2.26-7.79-5a2.81,2.81,0,0,1,.07-.65,9.14,9.14,0,0,1,6.72-2.5C99.9,64.43,103.39,66.69,103.39,69.48Z" fill="#a5a5a5"/>
        </g>
      </g>
    </g>
  </g>
</svg>
