<?xml version="1.0" encoding="utf-8"?>
<!-- Generator: Adobe Illustrator 23.0.2, SVG Export Plug-In . SVG Version: 6.00 Build 0)  -->
<svg version="1.1" xmlns="http://www.w3.org/2000/svg" xmlns:xlink="http://www.w3.org/1999/xlink" x="0px" y="0px"
	 viewBox="0 0 500 70.4" style="enable-background:new 0 0 500 70.4;" xml:space="preserve">
<style type="text/css">
	.st0{fill:none;stroke:#3AADDB;stroke-miterlimit:10;}
	.st1{fill:#00AFDE;}
</style>
<title>Asset 4</title>
<g>
	<g id="Layer_2-2">
		<g>
			<path class="st0" d="M385.2,18.6c2.6,4.5,4.4,9.4,5.4,14.5c1.8,6.1,0.6,12.8-3.2,17.9l-10.3,1.1"/>
			<path class="st0" d="M356.3,0.5c4.2,0,8.4,0.8,12.2,2.5c3.2,1.4,6.1,3.4,8.7,5.8c3.2,2.8,5.8,6.2,8,9.8"/>
			<path class="st0" d="M321.2,13.5c5.8-4.6,12.4-8.1,19.5-10.2c5-1.7,10.3-2.7,15.6-2.8"/>
			<path class="st0" d="M282.2,52c7.2-4.1,15.2-10.8,23.5-21.7c4.3-6.3,9.6-12,15.6-16.7"/>
			<path class="st0" d="M227.1,46.8c12.4,7.4,23.6,13.4,38.6,11.1c5.8-0.9,11.4-2.9,16.5-5.9"/>
			<path class="st0" d="M169.1,26c26.6,0.9,43.1,11.9,58.1,20.8"/>
			<path class="st0" d="M123.4,39.4c14.6-14.1,34.8-13.8,45.6-13.4"/>
			<path class="st0" d="M109.2,68.7c1-6.8,4-19.5,14.2-29.3"/>
			<line class="st0" x1="387.8" y1="58.3" x2="387.4" y2="51"/>
			<circle class="st1" cx="109.2" cy="69.3" r="1.1"/>
		</g>
	</g>
</g>
</svg>
