<svg id="nerfs" xmlns="http://www.w3.org/2000/svg" viewBox="0 0 238.48 139.69">
    <defs>
        <style>
            .cls-1,
            .cls-3,
            .cls-4,
            .cls-5,
            .cls-7 {
                fill: none;
                stroke-miterlimit: 10;
                stroke-width: 2.82px;
            }
            .cls-1,
            .cls-3,
            .cls-4 {
                stroke: #e42022;
            }
            .cls-2 {
                fill: #e42022;
            }
            .cls-3,
            .cls-4,
            .cls-7 {
                stroke-linecap: round;
            }
            .cls-4 {
                stroke-dasharray: 2.83 7.07;
            }
            .cls-5,
            .cls-7 {
                stroke: #0b95d0;
            }
            .cls-6 {
                fill: #0b95d0;
            }
        </style>
        <symbol id="New_Symbol_4" data-name="New Symbol 4" viewBox="0 0 691.48 243.18">
            <g id="Cable_bleu" data-name="Cable bleu">
                <path class="cls-5" d="M6.33,237.14C7.94,207.43,24.19,78.65,185.15,92.38c46.51,4.22,76.1,21.14,81.74,24S374,165.66,423.33,165.66,507.9,133.25,537.49,81.1,617.83-17.55,653.06,9.22c34.93,26.55,58.78,71.11,7,121.32" />
                <path class="cls-6" d="M12.71,237a6.36,6.36,0,1,1-6.15-6.56A6.35,6.35,0,0,1,12.71,237Z" />
            </g>
        </symbol>
        <symbol id="New_Symbol_3" data-name="New Symbol 3" viewBox="0 0 669.35 402.63">
            <path class="cls-3" d="M663.15,6.08c-.21.4-.44.81-.68,1.24" />
            <path class="cls-4" d="M659,13.44c-20.06,33.92-80.29,118.8-142.39,39.45,0,0-38.06-63.43-102.89,0,0,0-43.69,32.41-43.69,160.67s-93,169.12-93,169.12S81.28,480.82,2.84,225.57" />
            <path class="cls-3" d="M1.81,222.19c-.13-.45-.27-.9-.4-1.36" />
            <circle class="cls-2" cx="662.99" cy="6.36" r="6.36" transform="translate(485.6 645.21) rotate(-75.03)" />
        </symbol>
        <symbol id="New_Symbol_2" data-name="New Symbol 2" viewBox="0 0 673.02 163.52">
            <g id="Cable_rouge_Plein" data-name="Cable rouge Plein">
                <path
                    class="cls-1"
                    d="M661,6.06c5.27,11.75,16,39.52,7.28,53.74-14.1,16.91-43.69,32.41-71.88,15.5-26.78-22.55-62-60.6-86-50.74-25.37,4.23-81.75,33.83-109.93,52.15S347,103.49,328.64,104.9s-55-4.23-93-16.92S152,94,130.38,105.11s-58.25,35-58.25,35-18.44,1.94-37.59,4.21c-3.42.41-6.87.82-10.23,1.24a15.93,15.93,0,0,0-3,.66C10.4,149.83,5.9,153.39,4.1,156"
                />
                <path class="cls-2" d="M655.37,9.06a6.36,6.36,0,1,1,8.46,3.06A6.36,6.36,0,0,1,655.37,9.06Z" />
                <path class="cls-2" d="M.17,154.62a4.24,4.24,0,1,0,5.24-2.91A4.23,4.23,0,0,0,.17,154.62Z" />
                <path class="cls-1" d="M25.87,159.47c1.17-3.65,3.33-8.82,6.09-11.59,4.23-4.23,7.36-4.1,7.36-4.1" />
                <path class="cls-2" d="M30.09,160.35a4.24,4.24,0,1,1-3-5.17A4.24,4.24,0,0,1,30.09,160.35Z" />
                <path class="cls-1" d="M54.67,142S48,152.45,46.32,159.37" />
                <path class="cls-2" d="M42.15,158.84a4.24,4.24,0,1,0,4.55-3.91A4.24,4.24,0,0,0,42.15,158.84Z" />
                <path class="cls-1" d="M68.61,140.84c1.41-1.5,54.42-.74,66.63,9.33" />
                <path class="cls-2" d="M131.65,152.54a4.24,4.24,0,1,0,.91-5.92A4.24,4.24,0,0,0,131.65,152.54Z" />
            </g>
        </symbol>
    </defs>
    <g id="Layer_2" data-name="Layer 2">
        <g id="Layer_10" data-name="Layer 10">
            <use width="691.48" height="243.18" transform="translate(9.6 0)" xlink:href="#New_Symbol_4" />
            <use width="669.35" height="402.64" transform="translate(48.85 145.19)" xlink:href="#New_Symbol_3" />
            <use width="673.02" height="163.52" transform="translate(0 138.28)" xlink:href="#New_Symbol_2" />
            <polyline class="cls-7" points="657.77 134.19 670.6 129.78 670.33 141.84" />
            <polyline class="cls-7" points="706.95 51.67 708.74 38.23 719.4 43.85" />
            <polyline class="cls-7" points="707.62 136.13 719.67 129.9 721.16 141.87" />
            <path class="cls-5" d="M719,52.91S737.36,87,719,132" transform="translate(0 0)" />
            <circle class="cls-6" cx="719.04" cy="52.91" r="6.36" />
            <path class="cls-5" d="M710.35,39.61c-10.15-9.17-31.82-27.1-52.51-33.55" transform="translate(0 0)" />
        </g>
    </g>
</svg>
